<svg width="2000" xmlns="http://www.w3.org/2000/svg" height="1000" id="screenshot-44328a52-4e58-80a8-8007-8a465051772b" viewBox="0 0 2000 1000" xmlns:xlink="http://www.w3.org/1999/xlink" fill="none" version="1.1"><g id="shape-44328a52-4e58-80a8-8007-8a465051772b" width="2000" height="1000" rx="0" ry="0" style="fill: rgb(0, 0, 0);"><g id="shape-44328a52-4e58-80a8-8007-8a465051f44b" style="display: none;"><g class="fills" id="fills-44328a52-4e58-80a8-8007-8a465051f44b"><rect width="2000" height="1000" x="0" transform="matrix(1.000000, 0.000000, 0.000000, 1.000000, 0.000000, 0.000000)" style="fill: none;" ry="0" fill="none" rx="0" y="0"/></g></g><g id="shape-44328a52-4e58-80a8-8007-8a465051f44c"><g class="fills" id="fills-44328a52-4e58-80a8-8007-8a465051f44c"><path d="M1371,569C1359,585,1362.060546875,625.0811157226562,1370.580078125,651.0819702148438C1416,655,1682.5302734375,510.4960021972656,1682.5302734375,510.4960021972656L1682.5302734375,785.8489990234375L1605.89990234375,739.1290283203125L1590.580078125,729.4669799804688C1586.35009765625,727.0759887695312,1583.7099609375,724.3209838867188,1579.93017578125,721.2639770507812C1575.8701171875,716.3800048828125,1575.10009765625,713.7930297851562,1574.9599609375,707.5330200195312L1574.9599609375,593.4010009765625L1495.2099609375,631.2420043945312C1495.2099609375,631.2420043945312,1484.10986328125,747.9849853515625,1495.1298828125,760.8660278320312C1507.14013671875,774.906982421875,1514.830078125,777.1699829101562,1526.85986328125,785.8489990234375C1538.89013671875,794.5280151367188,1549.43994140625,800.3179931640625,1549.43994140625,800.3179931640625C1568.830078125,812.6300048828125,1579.41015625,821.5969848632812,1598.64013671875,834.1329956054688C1609.06982421875,840.9340209960938,1641.2998046875,858.1690063476562,1651.8798828125,864.72802734375C1662.4501953125,871.2880249023438,1672.0400390625,876,1682.5302734375,876C1705.02001953125,870.781005859375,1727.25,858.0059814453125,1743.81982421875,842.2069702148438C1765.56982421875,819.364990234375,1765.75,792.5590209960938,1765.56005859375,762.6510009765625L1764.7900390625,388.89898681640625L1396,557C1396,557,1371.6689453125,569.12158203125,1371,569L1371,569L1371,569" fill-rule="evenodd" clip-rule="evenodd" style="fill: rgb(65, 110, 125);"/></g></g><g id="shape-44328a52-4e58-80a8-8007-8a4650521c94"><g class="fills" id="fills-44328a52-4e58-80a8-8007-8a4650521c94"><path d="M1495.2099609375,125.50799560546875L1495.2099609375,357.4989929199219C1495.2099609375,357.4989929199219,1373.580078125,410.5920104980469,1373.580078125,412.2699890136719L1373.580078125,511.3009948730469L1817.990234375,314.04400634765625L1817.990234375,706.9459838867188L1896,651.3690185546875L1893.7998046875,190.05499267578125L1765.56005859375,247.2130126953125L1765.56005859375,125.041015625L1688.93994140625,125L1688.93994140625,166.84698486328125L1657.47998046875,167.375L1657.47998046875,125.50799560546875L1596.990234375,125.50799560546875L1596.990234375,167.31399536132812L1562.9599609375,167.13201904296875L1562.9599609375,125.50799560546875L1495.2099609375,125.50799560546875Z" fill-rule="evenodd" clip-rule="evenodd" style="fill: rgb(8, 177, 121);"/></g></g><g id="shape-44328a52-4e58-80a8-8007-8a4650521c95"><g class="fills" id="fills-44328a52-4e58-80a8-8007-8a4650521c95"><path d="M1628.14990234375,310.5140075683594C1628.14990234375,310.5140075683594,1641.43994140625,300.73199462890625,1644.759765625,295.7510070800781C1646.81005859375,292.6679992675781,1645.58984375,241.22500610351562,1645.58984375,241.22500610351562L1611.14013671875,241.22500610351562C1611.14013671875,241.22500610351562,1609.080078125,291.91400146484375,1611.14990234375,295.7510070800781C1614.259765625,301.5469970703125,1628.14990234375,310.5140075683594,1628.14990234375,310.5140075683594Z" style="fill: rgb(255, 255, 255);"/></g></g><g id="shape-44328a52-4e58-80a8-8007-8a4650528884"><g class="fills" id="fills-44328a52-4e58-80a8-8007-8a4650528884"><path d="M523.3857421875,567.9609985351562L574.35693359375,567.9609985351562L574.35693359375,651.0819702148438L523.3857421875,651.0819702148438L523.3857421875,567.9609985351562ZM192.33203125,796.280029296875C171.6630859375,796.280029296875,154.671875,791.5460205078125,141.35986328125,782.0759887695312C128.39794921875,772.6069946289062,118.76416015625,757.8759765625,112.458984375,737.885009765625C106.15283203125,718.2449951171875,103,692.4669799804688,103,660.551025390625C103,646.52197265625,103.52490234375,632.4929809570312,104.576171875,618.4650268554688C105.97802734375,604.0850219726562,107.90380859375,590.2319946289062,110.35693359375,576.9039916992188C112.80908203125,563.2260131835938,115.787109375,550.073974609375,119.2900390625,537.447998046875L190.7548828125,548.4959716796875C186.201171875,564.6290283203125,182.6982421875,580.2360229492188,180.24609375,595.3170166015625C178.14404296875,610.0469970703125,177.0927734375,624.6019897460938,177.0927734375,638.9819946289062C177.0927734375,654.7639770507812,177.44287109375,668.4420166015625,178.14404296875,680.0159912109375C179.19482421875,691.9409790039062,180.94580078125,702.9879760742188,183.39892578125,713.1589965820312L449.29296875,713.1589965820312L449.29296875,651.0819702148438L523.3857421875,651.0819702148438L523.3857421875,689.4860229492188C523.3857421875,727.0130004882812,514.27685546875,754.1939697265625,496.06005859375,771.0280151367188C477.84375,787.8629760742188,448.4169921875,796.280029296875,407.77978515625,796.280029296875L192.33203125,796.280029296875ZM376.77587890625,651.0819702148438C358.208984375,651.0819702148438,342.09375,648.802001953125,328.43212890625,644.2429809570312C314.76904296875,639.3330078125,303.73388671875,631.7919921875,295.326171875,621.6209716796875C286.9189453125,611.0989990234375,280.61279296875,597.5969848632812,276.4091796875,581.1129760742188C272.55517578125,564.2780151367188,270.62890625,544.1119995117188,270.62890625,520.6129760742188C270.62890625,498.51800537109375,273.0810546875,479.5790100097656,277.98486328125,463.7969970703125C282.89013671875,448.0140075683594,290.421875,435.2130126953125,300.5810546875,425.39300537109375C311.0908203125,415.5719909667969,324.578125,408.38299560546875,341.04296875,403.822998046875C357.85888671875,398.9129943847656,377.8271484375,396.4580078125,400.9482421875,396.4580078125C426.8720703125,396.4580078125,449.1171875,398.0360107421875,467.68408203125,401.1929931640625C486.60205078125,403.9989929199219,505.1689453125,409.0840148925781,523.3857421875,416.4490051269531L523.3857421875,651.0819702148438L376.77587890625,651.0819702148438ZM427.748046875,567.9609985351562C435.80517578125,567.9609985351562,441.41015625,566.3829956054688,444.56298828125,563.2260131835938C447.7158203125,560.0700073242188,449.29296875,554.4580078125,449.29296875,546.3909912109375L449.29296875,480.1050109863281L378.8779296875,480.1050109863281C367.66796875,480.1050109863281,359.9609375,481.6830139160156,355.7568359375,484.8399963378906C351.55322265625,487.64599609375,349.451171875,493.4320068359375,349.451171875,502.20098876953125L349.451171875,567.9609985351562L427.748046875,567.9609985351562ZM350.501953125,342.7980041503906C345.59716796875,342.7980041503906,339.81689453125,340.51800537109375,333.1611328125,335.9590148925781C326.85498046875,331.04901123046875,321.25,325.2619934082031,316.34619140625,318.5979919433594C311.791015625,311.9339904785156,309.51416015625,306.322998046875,309.51416015625,301.76300048828125C309.51416015625,296.1520080566406,311.791015625,290.364990234375,316.34619140625,284.40301513671875C321.25,278.0899963378906,326.85498046875,272.65301513671875,333.1611328125,268.093994140625C339.466796875,263.1839904785156,345.2470703125,260.72900390625,350.501953125,260.72900390625C355.7568359375,260.72900390625,361.537109375,263.1839904785156,367.8427734375,268.093994140625C374.14892578125,272.65301513671875,379.5791015625,278.0899963378906,384.1328125,284.40301513671875C389.037109375,290.364990234375,391.490234375,296.1520080566406,391.490234375,301.76300048828125C391.490234375,306.6730041503906,389.037109375,312.2850036621094,384.1328125,318.5979919433594C379.22802734375,324.9110107421875,373.623046875,330.5220031738281,367.31689453125,335.4330139160156C361.01220703125,340.3429870605469,355.40625,342.7980041503906,350.501953125,342.7980041503906ZM445.0888671875,342.7980041503906C440.18408203125,342.7980041503906,434.40380859375,340.51800537109375,427.748046875,335.9590148925781C421.44189453125,331.04901123046875,415.8369140625,325.2619934082031,410.93212890625,318.5979919433594C406.3779296875,311.9339904785156,404.10107421875,306.322998046875,404.10107421875,301.76300048828125C404.10107421875,296.1520080566406,406.3779296875,290.364990234375,410.93212890625,284.40301513671875C415.8369140625,278.0899963378906,421.44189453125,272.65301513671875,427.748046875,268.093994140625C434.05419921875,263.1839904785156,439.833984375,260.72900390625,445.0888671875,260.72900390625C450.34375,260.72900390625,456.1240234375,263.1839904785156,462.43017578125,268.093994140625C468.73486328125,272.65301513671875,474.1650390625,278.0899963378906,478.72021484375,284.40301513671875C483.6240234375,290.364990234375,486.076171875,296.1520080566406,486.076171875,301.76300048828125C486.076171875,306.6730041503906,483.6240234375,312.2850036621094,478.72021484375,318.5979919433594C473.81494140625,324.9110107421875,468.2099609375,330.5220031738281,461.90380859375,335.4330139160156C455.59814453125,340.3429870605469,449.9931640625,342.7980041503906,445.0888671875,342.7980041503906Z" style="fill: rgb(65, 110, 125);"/></g></g><g id="shape-44328a52-4e58-80a8-8007-8a4650528885"><g class="fills" id="fills-44328a52-4e58-80a8-8007-8a4650528885"><path d="M933.634765625,651.0819702148438C908.76220703125,651.0819702148438,888.44384765625,649.1530151367188,872.67919921875,645.2949829101562C856.9150390625,641.43701171875,844.65283203125,634.948974609375,835.89501953125,625.8300170898438C827.13720703125,616.3599853515625,821.0068359375,603.3839721679688,817.5029296875,586.9000244140625C814.35107421875,570.0650024414062,812.77392578125,549.197021484375,812.77392578125,524.2960205078125L812.77392578125,451.1709899902344L886.8671875,451.1709899902344L886.8671875,540.0780029296875C886.8671875,551.302001953125,890.19482421875,558.8419799804688,896.85107421875,562.7000122070312C903.5068359375,566.2069702148438,913.31591796875,567.9609985351562,926.27783203125,567.9609985351562L987.23388671875,567.9609985351562C989.3359375,560.9459838867188,990.73681640625,553.22998046875,991.43798828125,544.81298828125C992.13916015625,536.39599609375,992.4892578125,526.5759887695312,992.4892578125,515.35302734375C992.4892578125,499.218994140625,991.087890625,482.9110107421875,988.28515625,466.427001953125C985.48193359375,449.9429931640625,981.97900390625,432.9330139160156,977.77490234375,415.3970031738281L1050.81982421875,403.822998046875C1054.669921875,414.6960144042969,1057.64990234375,426.093994140625,1059.75,438.0190124511719C1062.2001953125,449.9429931640625,1063.9501953125,462.2179870605469,1065.009765625,474.843994140625C1066.06005859375,487.1199951171875,1066.580078125,499.218994140625,1066.580078125,511.1440124511719C1066.580078125,547.6190185546875,1061.68017578125,576.0269775390625,1051.8701171875,596.3690185546875C1042.41015625,616.7109985351562,1027.8701171875,630.9149780273438,1008.25,638.9819946289062C988.634765625,647.0479736328125,963.76318359375,651.0819702148438,933.634765625,651.0819702148438ZM750.2421875,651.0819702148438L707.15185546875,651.0819702148438L707.15185546875,567.9609985351562L773.36279296875,567.9609985351562C786.3251953125,567.9609985351562,796.1337890625,566.2069702148438,802.7900390625,562.7000122070312C809.44580078125,558.8419799804688,812.77392578125,551.302001953125,812.77392578125,540.0780029296875L812.77392578125,451.1709899902344L886.8671875,451.1709899902344L886.8671875,524.2960205078125C886.8671875,549.197021484375,885.115234375,570.0650024414062,881.61181640625,586.9000244140625C878.10888671875,603.3839721679688,871.453125,616.3599853515625,861.64404296875,625.8300170898438C852.18505859375,634.948974609375,838.34814453125,641.43701171875,820.130859375,645.2949829101562C802.26416015625,649.1530151367188,778.9677734375,651.0819702148438,750.2421875,651.0819702148438ZM707.15185546875,651.0819702148438L553.18603515625,651.0819702148438L553.18603515625,567.9609985351562L633.05908203125,567.9609985351562L633.05908203125,451.1709899902344L707.15185546875,451.1709899902344L707.15185546875,651.0819702148438ZM1021.919921875,567.9609985351562L1117.5498046875,567.9609985351562L1117.5498046875,651.0819702148438L933.634765625,651.0819702148438L1021.919921875,567.9609985351562Z" style="fill: rgb(65, 110, 125);"/></g></g><g id="shape-44328a52-4e58-80a8-8007-8a465052ef63"><g class="fills" id="fills-44328a52-4e58-80a8-8007-8a465052ef63"><path d="M1250.58984375,567.9609985351562L1301.56982421875,567.9609985351562L1301.56982421875,651.0819702148438L1096.6298828125,651.0819702148438L1096.6298828125,567.9609985351562L1176.5,567.9609985351562L1176.5,403.822998046875L1250.58984375,403.822998046875L1250.58984375,567.9609985351562ZM1166.52001953125,342.7980041503906C1161.60986328125,342.7980041503906,1155.830078125,340.51800537109375,1149.18017578125,335.9590148925781C1142.8701171875,331.04901123046875,1137.27001953125,325.2619934082031,1132.35986328125,318.5979919433594C1127.81005859375,311.9339904785156,1125.5302734375,306.322998046875,1125.5302734375,301.76300048828125C1125.5302734375,296.1520080566406,1127.81005859375,290.364990234375,1132.35986328125,284.40301513671875C1137.27001953125,278.0899963378906,1142.8701171875,272.65301513671875,1149.18017578125,268.093994140625C1155.47998046875,263.1839904785156,1161.259765625,260.72900390625,1166.52001953125,260.72900390625C1171.77001953125,260.72900390625,1177.5498046875,263.1839904785156,1183.85986328125,268.093994140625C1190.16015625,272.65301513671875,1195.58984375,278.0899963378906,1200.14990234375,284.40301513671875C1205.0498046875,290.364990234375,1207.509765625,296.1520080566406,1207.509765625,301.76300048828125C1207.509765625,306.6730041503906,1205.0498046875,312.2850036621094,1200.14990234375,318.5979919433594C1195.240234375,324.9110107421875,1189.64013671875,330.5220031738281,1183.330078125,335.4330139160156C1177.0302734375,340.3429870605469,1171.419921875,342.7980041503906,1166.52001953125,342.7980041503906ZM1261.10009765625,342.7980041503906C1256.2001953125,342.7980041503906,1250.419921875,340.51800537109375,1243.759765625,335.9590148925781C1237.4599609375,331.04901123046875,1231.85009765625,325.2619934082031,1226.9501953125,318.5979919433594C1222.39013671875,311.9339904785156,1220.1201171875,306.322998046875,1220.1201171875,301.76300048828125C1220.1201171875,296.1520080566406,1222.39013671875,290.364990234375,1226.9501953125,284.40301513671875C1231.85009765625,278.0899963378906,1237.4599609375,272.65301513671875,1243.759765625,268.093994140625C1250.06982421875,263.1839904785156,1255.85009765625,260.72900390625,1261.10009765625,260.72900390625C1266.35986328125,260.72900390625,1272.14013671875,263.1839904785156,1278.4501953125,268.093994140625C1284.75,272.65301513671875,1290.18017578125,278.0899963378906,1294.740234375,284.40301513671875C1299.64013671875,290.364990234375,1302.08984375,296.1520080566406,1302.08984375,301.76300048828125C1302.08984375,306.6730041503906,1299.64013671875,312.2850036621094,1294.740234375,318.5979919433594C1289.830078125,324.9110107421875,1284.22998046875,330.5220031738281,1277.919921875,335.4330139160156C1271.60986328125,340.3429870605469,1266.009765625,342.7980041503906,1261.10009765625,342.7980041503906Z" style="fill: rgb(65, 110, 125);"/></g></g><g id="shape-44328a52-4e58-80a8-8007-8a465052ef64"><g class="fills" id="fills-44328a52-4e58-80a8-8007-8a465052ef64"><path d="M1280.33984375,651.0819702148438L1280.33984375,567.9609985351562C1280.33984375,567.9609985351562,1370,568.2730102539062,1373.580078125,567.9609985351562L1373.580078125,651.0819702148438C1354.43017578125,653.030029296875,1280.33984375,651.0819702148438,1280.33984375,651.0819702148438Z" style="fill: rgb(65, 110, 125);"/></g></g></g></svg>